<?xml version="1.0" encoding="utf-8"?><!-- Uploaded to: SVG Repo, www.svgrepo.com, Generator: SVG Repo Mixer Tools -->
<svg version="1.1" id="Uploaded to svgrepo.com" xmlns="http://www.w3.org/2000/svg" xmlns:xlink="http://www.w3.org/1999/xlink" 
	 width="800px" height="800px" viewBox="0 0 32 32" xml:space="preserve">
<style type="text/css">
	.stone_een{fill:#0B1719;}
</style>
<path class="stone_een" d="M29.5,24.5L16.563,11.563C16.84,10.758,17,9.899,17,9c0-4.411-3.589-8-8-8
	C8.338,1,7.659,1.089,6.982,1.266c-0.347,0.09-0.619,0.359-0.713,0.706C6.175,2.317,6.273,2.687,6.527,2.941l2.645,2.645
	C9.549,5.964,9.757,6.466,9.757,7c0,0.534-0.208,1.036-0.586,1.414L8.414,9.172C8.036,9.549,7.534,9.757,7,9.757
	S5.964,9.549,5.586,9.172L2.941,6.526c-0.19-0.19-0.445-0.293-0.707-0.293c-0.087,0-0.175,0.011-0.262,0.035
	C1.625,6.363,1.356,6.635,1.266,6.982C1.089,7.659,1,8.338,1,9c0,4.411,3.589,8,8,8c0.899,0,1.758-0.16,2.563-0.437L24.5,29.5
	c0.69,0.69,1.595,1.036,2.5,1.036s1.81-0.345,2.5-1.036C30.881,28.119,30.881,25.881,29.5,24.5z M27,28c-0.552,0-1-0.448-1-1
	c0-0.552,0.448-1,1-1s1,0.448,1,1C28,27.552,27.552,28,27,28z"/>
</svg>