<?xml version="1.0" encoding="UTF-8"?>
<!DOCTYPE svg PUBLIC "-//W3C//DTD SVG 1.1//EN" "http://www.w3.org/Graphics/SVG/1.1/DTD/svg11.dtd">
<svg version="1.2" width="147.32mm" height="147.32mm" viewBox="3413 8112 14732 14732" preserveAspectRatio="xMidYMid" fill-rule="evenodd" stroke-width="28.222" stroke-linejoin="round" xmlns="http://www.w3.org/2000/svg" xmlns:ooo="http://xml.openoffice.org/svg/export" xmlns:xlink="http://www.w3.org/1999/xlink" xmlns:presentation="http://sun.com/xmlns/staroffice/presentation" xmlns:smil="http://www.w3.org/2001/SMIL20/" xmlns:anim="urn:oasis:names:tc:opendocument:xmlns:animation:1.0" xml:space="preserve">
 <defs class="EmbeddedBulletChars">
  <g id="bullet-char-template-57356" transform="scale(0.00048828125,-0.00048828125)">
   <path d="M 580,1141 L 1163,571 580,0 -4,571 580,1141 Z"/>
  </g>
  <g id="bullet-char-template-57354" transform="scale(0.00048828125,-0.00048828125)">
   <path d="M 8,1128 L 1137,1128 1137,0 8,0 8,1128 Z"/>
  </g>
  <g id="bullet-char-template-10146" transform="scale(0.00048828125,-0.00048828125)">
   <path d="M 174,0 L 602,739 174,1481 1456,739 174,0 Z M 1358,739 L 309,1346 659,739 1358,739 Z"/>
  </g>
  <g id="bullet-char-template-10132" transform="scale(0.00048828125,-0.00048828125)">
   <path d="M 2015,739 L 1276,0 717,0 1260,543 174,543 174,936 1260,936 717,1481 1274,1481 2015,739 Z"/>
  </g>
  <g id="bullet-char-template-10007" transform="scale(0.00048828125,-0.00048828125)">
   <path d="M 0,-2 C -7,14 -16,27 -25,37 L 356,567 C 262,823 215,952 215,954 215,979 228,992 255,992 264,992 276,990 289,987 310,991 331,999 354,1012 L 381,999 492,748 772,1049 836,1024 860,1049 C 881,1039 901,1025 922,1006 886,937 835,863 770,784 769,783 710,716 594,584 L 774,223 C 774,196 753,168 711,139 L 727,119 C 717,90 699,76 672,76 641,76 570,178 457,381 L 164,-76 C 142,-110 111,-127 72,-127 30,-127 9,-110 8,-76 1,-67 -2,-52 -2,-32 -2,-23 -1,-13 0,-2 Z"/>
  </g>
  <g id="bullet-char-template-10004" transform="scale(0.00048828125,-0.00048828125)">
   <path d="M 285,-33 C 182,-33 111,30 74,156 52,228 41,333 41,471 41,549 55,616 82,672 116,743 169,778 240,778 293,778 328,747 346,684 L 369,508 C 377,444 397,411 428,410 L 1163,1116 C 1174,1127 1196,1133 1229,1133 1271,1133 1292,1118 1292,1087 L 1292,965 C 1292,929 1282,901 1262,881 L 442,47 C 390,-6 338,-33 285,-33 Z"/>
  </g>
  <g id="bullet-char-template-9679" transform="scale(0.00048828125,-0.00048828125)">
   <path d="M 813,0 C 632,0 489,54 383,161 276,268 223,411 223,592 223,773 276,916 383,1023 489,1130 632,1184 813,1184 992,1184 1136,1130 1245,1023 1353,916 1407,772 1407,592 1407,412 1353,268 1245,161 1136,54 992,0 813,0 Z"/>
  </g>
  <g id="bullet-char-template-8226" transform="scale(0.00048828125,-0.00048828125)">
   <path d="M 346,457 C 273,457 209,483 155,535 101,586 74,649 74,723 74,796 101,859 155,911 209,963 273,989 346,989 419,989 480,963 531,910 582,859 608,796 608,723 608,648 583,586 532,535 482,483 420,457 346,457 Z"/>
  </g>
  <g id="bullet-char-template-8211" transform="scale(0.00048828125,-0.00048828125)">
   <path d="M -4,459 L 1135,459 1135,606 -4,606 -4,459 Z"/>
  </g>
  <g id="bullet-char-template-61548" transform="scale(0.00048828125,-0.00048828125)">
   <path d="M 173,740 C 173,903 231,1043 346,1159 462,1274 601,1332 765,1332 928,1332 1067,1274 1183,1159 1299,1043 1357,903 1357,740 1357,577 1299,437 1183,322 1067,206 928,148 765,148 601,148 462,206 346,322 231,437 173,577 173,740 Z"/>
  </g>
 </defs>
 <g class="Page">
  <g class="Graphic">
   <g id="id3">
    <rect class="BoundingBox" stroke="none" fill="none" x="3413" y="8112" width="14732" height="14732"/>
    <defs>
     <clipPath id="clip_path_1" clipPathUnits="userSpaceOnUse">
      <path d="M 3413,8112 L 18144,8112 18144,22843 3413,22843 3413,8112 Z"/>
     </clipPath>
    </defs>
    <g clip-path="url(#clip_path_1)">
     <path fill="rgb(255,255,255)" stroke="none" d="M 3459,8127 L 5090,8127 5090,9757 3459,9757 3459,8127 3459,8127 Z M 6720,8127 L 8350,8127 8350,9757 6720,9757 6720,8127 6720,8127 Z M 9980,8127 L 11611,8127 11611,9757 9980,9757 9980,8127 9980,8127 Z M 13241,8127 L 14871,8127 14871,9757 13241,9757 13241,8127 13241,8127 Z M 16502,8127 L 18132,8127 18132,9757 16502,9757 16502,8127 16502,8127 Z M 16502,11387 L 18132,11387 18132,13017 16502,13017 16502,11387 16502,11387 Z M 3459,21168 L 5090,21168 5090,22799 3459,22799 3459,21168 3459,21168 Z M 3459,17908 L 5090,17908 5090,19538 3459,19538 3459,17908 3459,17908 Z M 3459,14648 L 5090,14648 5090,16278 3459,16278 3459,14648 3459,14648 Z M 3459,11387 L 5090,11387 5090,13017 3459,13017 3459,11387 3459,11387 Z M 9709,14648 L 10553,13380 10553,13380 C 10623,13276 10716,13189 10824,13127 10948,13055 11088,13017 11232,13017 11232,13017 11232,13017 11232,13017 L 13620,13017 13620,13017 C 13620,13017 13620,13017 13620,13017 13763,13017 13904,13055 14028,13127 14136,13189 14229,13276 14298,13380 L 15143,14648 17317,14648 17317,14648 C 17460,14648 17600,14685 17724,14757 17848,14828 17951,14931 18023,15055 18094,15179 18132,15320 18132,15463 L 18132,15463 18132,21983 18132,21983 C 18132,22127 18094,22267 18023,22391 17951,22515 17848,22618 17724,22689 17600,22761 17460,22799 17317,22799 L 7535,22799 7535,22799 C 7392,22799 7251,22761 7127,22689 7004,22618 6901,22515 6829,22391 6758,22267 6720,22127 6720,21983 L 6720,15463 6720,15463 C 6720,15320 6758,15179 6829,15055 6901,14931 7004,14828 7127,14757 7251,14685 7392,14648 7535,14648 L 9709,14648 9709,14648 Z M 8350,21168 L 16502,21168 16502,16278 14271,16278 13184,14648 11668,14648 10581,16278 8350,16278 8350,21168 8350,21168 Z M 12426,20353 L 12426,20353 C 12140,20353 11859,20278 11611,20135 11363,19992 11157,19786 11014,19538 10871,19290 10796,19009 10796,18723 10796,18437 10871,18156 11014,17908 11157,17660 11363,17454 11611,17311 11859,17168 12140,17093 12426,17093 L 12426,17093 C 12712,17093 12993,17168 13241,17311 13489,17454 13695,17660 13838,17908 13981,18156 14056,18437 14056,18723 14056,19009 13981,19290 13838,19538 13695,19786 13489,19992 13241,20135 12993,20278 12712,20353 12426,20353 L 12426,20353 Z"/>
    </g>
   </g>
  </g>
 </g>
</svg>
