<?xml version="1.0" encoding="utf-8"?>

<!DOCTYPE svg PUBLIC "-//W3C//DTD SVG 1.1//EN" "http://www.w3.org/Graphics/SVG/1.1/DTD/svg11.dtd">
<!-- Uploaded to: SVG Repo, www.svgrepo.com, Generator: SVG Repo Mixer Tools -->
<svg version="1.1" id="SERVERS" xmlns="http://www.w3.org/2000/svg" xmlns:xlink="http://www.w3.org/1999/xlink" 
	 width="800px" height="800px" viewBox="0 0 1800 1800" enable-background="new 0 0 1800 1800" xml:space="preserve">
<g>
	<path fill="#ffffff" d="M1713.195,662.483H86.805c-46.621,0-84.549,37.929-84.549,84.55v315.328
		c0,46.615,37.928,84.54,84.549,84.54h1626.391c46.625,0,84.55-37.925,84.55-84.54V747.033
		C1797.745,700.412,1759.82,662.483,1713.195,662.483z M1734.746,1062.361c0,11.882-9.668,21.541-21.551,21.541H86.805
		c-11.883,0-21.55-9.659-21.55-21.541V747.033c0-11.883,9.667-21.55,21.55-21.55h1626.391c11.883,0,21.551,9.667,21.551,21.55
		V1062.361z"/>
	<path fill="#ffffff" d="M262.693,851.239c-29.518,0-53.45,23.933-53.45,53.448c0,29.521,23.932,53.445,53.45,53.445
		s53.45-23.924,53.45-53.445C316.144,875.172,292.211,851.239,262.693,851.239z"/>
	<path fill="#ffffff" d="M447.018,851.239c-29.522,0-53.455,23.933-53.455,53.448c0,29.521,23.932,53.445,53.455,53.445
		c29.513,0,53.445-23.924,53.445-53.445C500.463,875.172,476.53,851.239,447.018,851.239z"/>
	<path fill="#ffffff" d="M631.339,851.239c-29.522,0-53.454,23.933-53.454,53.448c0,29.521,23.932,53.445,53.454,53.445
		c29.513,0,53.445-23.924,53.445-53.445C684.784,875.172,660.852,851.239,631.339,851.239z"/>
	<path fill="#ffffff" d="M1567.738,873.181H927.254c-17.394,0-31.5,14.102-31.5,31.497c0,17.402,14.106,31.5,31.5,31.5h640.484
		c17.394,0,31.5-14.098,31.5-31.5C1599.238,887.283,1585.132,873.181,1567.738,873.181z"/>
	<path fill="#ffffff" d="M1713.195,1315.578H86.805c-46.621,0-84.549,37.934-84.549,84.551v315.329
		c0,46.616,37.928,84.54,84.549,84.54h1626.391c46.625,0,84.55-37.924,84.55-84.54v-315.329
		C1797.745,1353.512,1759.82,1315.578,1713.195,1315.578z M1734.746,1715.458c0,11.882-9.668,21.542-21.551,21.542H86.805
		c-11.883,0-21.55-9.66-21.55-21.542v-315.329c0-11.883,9.667-21.551,21.55-21.551h1626.391c11.883,0,21.551,9.668,21.551,21.551
		V1715.458z"/>
	<path fill="#ffffff" d="M262.693,1504.339c-29.518,0-53.45,23.933-53.45,53.445c0,29.522,23.932,53.446,53.45,53.446
		s53.45-23.924,53.45-53.446C316.144,1528.271,292.211,1504.339,262.693,1504.339z"/>
	<path fill="#ffffff" d="M447.018,1504.339c-29.522,0-53.455,23.933-53.455,53.445c0,29.522,23.932,53.446,53.455,53.446
		c29.513,0,53.445-23.924,53.445-53.446C500.463,1528.271,476.53,1504.339,447.018,1504.339z"/>
	<path fill="#ffffff" d="M631.339,1504.339c-29.522,0-53.454,23.933-53.454,53.445c0,29.522,23.932,53.446,53.454,53.446
		c29.513,0,53.445-23.924,53.445-53.446C684.784,1528.271,660.852,1504.339,631.339,1504.339z"/>
	<path fill="#ffffff" d="M1567.738,1526.275H927.254c-17.394,0-31.5,14.107-31.5,31.5c0,17.402,14.106,31.5,31.5,31.5h640.484
		c17.394,0,31.5-14.098,31.5-31.5C1599.238,1540.383,1585.132,1526.275,1567.738,1526.275z"/>
	<path fill="#ffffff" d="M1713.195,0H86.805C40.184,0,2.255,37.929,2.255,84.55v315.329c0,46.617,37.928,84.541,84.549,84.541
		h1626.391c46.625,0,84.55-37.924,84.55-84.541V84.55C1797.745,37.929,1759.82,0,1713.195,0z M1734.746,399.879
		c0,11.878-9.668,21.542-21.551,21.542H86.805c-11.883,0-21.55-9.664-21.55-21.542V84.55c0-11.883,9.667-21.551,21.55-21.551
		h1626.391c11.883,0,21.551,9.668,21.551,21.551V399.879z"/>
	<circle fill="#ffffff" cx="262.693" cy="242.204" r="53.448"/>
	<path fill="#ffffff" d="M447.018,188.756c-29.522,0-53.455,23.932-53.455,53.45c0,29.518,23.932,53.446,53.455,53.446
		c29.513,0,53.445-23.928,53.445-53.446C500.463,212.688,476.53,188.756,447.018,188.756z"/>
	<path fill="#ffffff" d="M631.339,188.756c-29.522,0-53.454,23.932-53.454,53.45c0,29.518,23.932,53.446,53.454,53.446
		c29.513,0,53.445-23.928,53.445-53.446C684.784,212.688,660.852,188.756,631.339,188.756z"/>
	<path fill="#ffffff" d="M1567.738,210.697H927.254c-17.394,0-31.5,14.102-31.5,31.5s14.106,31.5,31.5,31.5h640.484
		c17.394,0,31.5-14.102,31.5-31.5S1585.132,210.697,1567.738,210.697z"/>
</g>
</svg>